<svg width="87" height="18" viewBox="0 0 87 18" fill="none" xmlns="http://www.w3.org/2000/svg">
<path d="M0.0209961 1.00781H8.3514V3.03101H2.2602V6.11981H8.0274V8.14301H2.2602V11.5558H8.6682V13.579H0.0209961V1.00781Z" fill="#454B4E"/>
<path d="M16.0053 12.4055H15.9549C15.6453 12.8879 15.2565 13.2407 14.7813 13.4639C14.3061 13.6799 13.7877 13.7951 13.2189 13.7951C12.8301 13.7951 12.4485 13.7447 12.0741 13.6367C11.6997 13.5287 11.3685 13.3703 11.0805 13.1543C10.7925 12.9383 10.5549 12.6719 10.3821 12.3551C10.2021 12.0383 10.1157 11.6639 10.1157 11.2391C10.1157 10.7783 10.1949 10.3823 10.3677 10.0583C10.5333 9.73426 10.7565 9.46066 11.0301 9.24466C11.3109 9.02866 11.6277 8.84866 11.9949 8.71906C12.3621 8.58946 12.7437 8.48866 13.1397 8.42386C13.5357 8.35906 13.9389 8.31586 14.3349 8.30146C14.7381 8.28706 15.1197 8.27266 15.4725 8.27266H16.0053V8.04226C16.0053 7.50946 15.8181 7.11346 15.4581 6.84706C15.0909 6.58066 14.6229 6.45106 14.0541 6.45106C13.6077 6.45106 13.1829 6.53026 12.7941 6.68866C12.4053 6.84706 12.0669 7.06306 11.7789 7.33666L10.6629 6.22066C11.1381 5.73826 11.6925 5.38546 12.3261 5.17666C12.9597 4.96066 13.6149 4.85986 14.2845 4.85986C14.8893 4.85986 15.4005 4.92466 15.8109 5.06146C16.2285 5.19826 16.5669 5.37106 16.8405 5.58706C17.1141 5.80306 17.3229 6.04786 17.4741 6.32146C17.6253 6.60226 17.7261 6.88306 17.7909 7.16386C17.8557 7.44466 17.8917 7.72546 17.9061 7.99186C17.9205 8.25826 17.9205 8.48866 17.9205 8.69026V13.5935H16.0053V12.4055ZM15.8829 9.76306H15.4365C15.1413 9.76306 14.8101 9.77746 14.4429 9.79906C14.0757 9.82066 13.7301 9.87826 13.4061 9.96466C13.0821 10.0511 12.8085 10.1807 12.5781 10.3535C12.3549 10.5263 12.2397 10.7639 12.2397 11.0735C12.2397 11.2751 12.2829 11.4407 12.3693 11.5775C12.4557 11.7143 12.5709 11.8295 12.7149 11.9231C12.8589 12.0167 13.0173 12.0887 13.1973 12.1247C13.3773 12.1679 13.5501 12.1895 13.7301 12.1895C14.4645 12.1895 15.0045 12.0167 15.3573 11.6639C15.7029 11.3183 15.8829 10.8359 15.8829 10.2311V9.76306Z" fill="#454B4E"/>
<path d="M24.7599 7.42306C24.3423 6.83986 23.7879 6.55186 23.0895 6.55186C22.8087 6.55186 22.5279 6.62386 22.2543 6.76786C21.9807 6.91186 21.8439 7.14226 21.8439 7.45906C21.8439 7.71826 21.9591 7.91266 22.1823 8.02786C22.4055 8.14306 22.6935 8.24386 23.0319 8.33026C23.3775 8.41666 23.7447 8.49586 24.1407 8.58946C24.5367 8.67586 24.9039 8.81266 25.2495 8.99986C25.5951 9.18706 25.8759 9.43186 26.0991 9.75586C26.3223 10.0727 26.4375 10.5119 26.4375 11.0663C26.4375 11.5775 26.3295 12.0023 26.1063 12.3551C25.8903 12.7007 25.6023 12.9887 25.2567 13.1975C24.9039 13.4135 24.5151 13.5647 24.0759 13.6583C23.6367 13.7519 23.1975 13.8023 22.7655 13.8023C22.1031 13.8023 21.4911 13.7087 20.9367 13.5215C20.3823 13.3343 19.8855 12.9887 19.4463 12.4919L20.8647 11.1599C21.1383 11.4695 21.4263 11.7215 21.7431 11.9159C22.0599 12.1103 22.4415 12.2111 22.8879 12.2111C23.0391 12.2111 23.2047 12.1967 23.3703 12.1607C23.5359 12.1247 23.6871 12.0671 23.8311 11.9807C23.9751 11.9015 24.0903 11.7935 24.1767 11.6711C24.2631 11.5487 24.3063 11.4047 24.3063 11.2391C24.3063 10.9439 24.1911 10.7207 23.9679 10.5839C23.7447 10.4399 23.4567 10.3247 23.1183 10.2383C22.7727 10.1519 22.4055 10.0655 22.0095 9.98626C21.6135 9.90706 21.2463 9.78466 20.9007 9.61186C20.5551 9.43906 20.2743 9.20146 20.0511 8.89186C19.8279 8.58226 19.7127 8.15746 19.7127 7.61026C19.7127 7.13506 19.8135 6.72466 20.0079 6.37906C20.2023 6.03346 20.4615 5.74546 20.7783 5.51506C21.0951 5.29186 21.4623 5.12626 21.8799 5.01826C22.2975 4.91026 22.7151 4.85986 23.1399 4.85986C23.7087 4.85986 24.2703 4.96066 24.8247 5.15506C25.3791 5.34946 25.8327 5.68786 26.1711 6.15586L24.7599 7.42306Z" fill="#454B4E"/>
<path d="M26.9414 5.06128H29.2886L31.6646 10.9725H31.7006L33.8318 5.06128H36.0494L32.0174 15.4149C31.8662 15.8181 31.6934 16.1709 31.5134 16.4733C31.3262 16.7757 31.1174 17.0277 30.8654 17.2365C30.6134 17.4453 30.3254 17.5965 29.987 17.6973C29.6486 17.7981 29.2454 17.8485 28.7702 17.8485C28.2158 17.8485 27.6686 17.7765 27.1358 17.6325L27.4022 15.7173C27.5678 15.7749 27.7406 15.8253 27.9278 15.8685C28.1078 15.9117 28.295 15.9333 28.4894 15.9333C28.7486 15.9333 28.9718 15.9117 29.1446 15.8613C29.3246 15.8109 29.4758 15.7389 29.5982 15.6381C29.7206 15.5373 29.8286 15.4077 29.9078 15.2493C29.987 15.0909 30.0806 14.8965 30.1742 14.6733L30.5846 13.6581L26.9414 5.06128Z" fill="#454B4E"/>
<path d="M37.5044 1.00781H39.7436V6.33581H39.8516L45.0572 1.00781H48.074L42.1916 6.81821L48.4628 13.5862H45.3236L39.8732 7.40861H39.7436V13.5862H37.5044V1.00781Z" fill="#454B4E"/>
<path d="M49.7366 5.06134H51.7598V6.42934H51.7958C51.9974 6.00454 52.307 5.63014 52.7174 5.32054C53.135 5.00374 53.6966 4.85254 54.4022 4.85254C54.971 4.85254 55.4534 4.94614 55.8494 5.13334C56.2454 5.32054 56.5694 5.57254 56.8142 5.88214C57.0662 6.19174 57.239 6.54454 57.347 6.94774C57.455 7.35094 57.5054 7.76854 57.5054 8.20774V13.5861H55.3742V9.27334C55.3742 9.03574 55.3598 8.77654 55.3382 8.48134C55.3166 8.19334 55.2518 7.91974 55.151 7.66774C55.0502 7.41574 54.8918 7.19974 54.683 7.02694C54.467 6.85414 54.179 6.76774 53.8118 6.76774C53.459 6.76774 53.1566 6.82534 52.9118 6.94774C52.667 7.06294 52.4654 7.22854 52.307 7.43014C52.1486 7.63174 52.0334 7.86214 51.9614 8.12134C51.8894 8.38054 51.8534 8.65414 51.8534 8.93494V13.5861H49.7222V5.06134H49.7366Z" fill="#454B4E"/>
<path d="M75.2612 7.61734C75.0092 7.35814 74.75 7.14934 74.4836 6.99814C74.21 6.84694 73.9364 6.76774 73.6484 6.76774C73.2596 6.76774 72.9068 6.83974 72.6044 6.98374C72.2948 7.12774 72.0356 7.31494 71.8124 7.55254C71.5964 7.79014 71.4308 8.06374 71.3156 8.36614C71.2004 8.67574 71.15 8.99254 71.15 9.32374C71.15 9.65494 71.2076 9.97174 71.3156 10.2813C71.4308 10.5909 71.5964 10.8645 71.8124 11.0949C72.0284 11.3325 72.2948 11.5197 72.6044 11.6637C72.914 11.8077 73.2596 11.8797 73.6484 11.8797C73.9796 11.8797 74.2892 11.8149 74.57 11.6781C74.8508 11.5413 75.0956 11.3469 75.2972 11.0805L76.7156 12.6069C76.4996 12.8229 76.2548 13.0029 75.9812 13.1541C75.7004 13.3053 75.4196 13.4349 75.1388 13.5285C74.858 13.6221 74.5844 13.6941 74.3252 13.7301C74.066 13.7733 73.8428 13.7949 73.6484 13.7949C73.0076 13.7949 72.4028 13.6869 71.834 13.4781C71.2652 13.2621 70.7756 12.9597 70.358 12.5709C69.9404 12.1821 69.6164 11.7069 69.3716 11.1597C69.1268 10.6125 69.0044 9.99334 69.0044 9.32374C69.0044 8.64694 69.1268 8.03494 69.3716 7.48774C69.6164 6.94054 69.9404 6.46534 70.358 6.07654C70.7756 5.68774 71.2652 5.38534 71.834 5.16934C72.4028 4.95334 73.0076 4.85254 73.6484 4.85254C74.1956 4.85254 74.7428 4.95334 75.29 5.16214C75.8372 5.37094 76.3196 5.69494 76.7372 6.14854L75.2612 7.61734Z" fill="#454B4E"/>
<path d="M77.9971 0.158203H80.1283V8.5894L83.4115 5.0542H86.1475L82.4899 8.9278L86.3779 13.579H83.5555L80.1643 9.2302H80.1283V13.579H77.9971V0.158203Z" fill="#454B4E"/>
<path d="M63.3091 13.5789C65.7149 13.5789 67.6651 11.6287 67.6651 9.22294C67.6651 6.81719 65.7149 4.86694 63.3091 4.86694C60.9034 4.86694 58.9531 6.81719 58.9531 9.22294C58.9531 11.6287 60.9034 13.5789 63.3091 13.5789Z" fill="#00DBB1"/>
<path d="M63.3382 6.99097L60.5806 8.32297V10.879H63.3166H63.3526H66.0957V8.32297L63.3382 6.99097Z" fill="white"/>
</svg>
