<svg xmlns="http://www.w3.org/2000/svg" viewBox="0 0 4033.07 1281.56"><defs><style>.a{fill:#FFF;}.b{fill:#f47521;}</style></defs><path class="a" d="M1441.34,259.58v74q-44.92-45.36-97.86-67.91-52.89-22.71-113.2-22.7-131.08,0-222.77,99.17T915.8,596.44q0,149.7,94.75,250.38t224.66,100.7q57.86,0,107.38-20.67t98.76-67.52v71.56h168.79V259.58Zm-44.52,478.1q-52.33,55.11-131.56,55.12-76.92,0-129.4-56T1083.31,594q0-86.16,51.61-141.21t129.71-55.13q79.86,0,132.19,54.2Q1449,506,1449,593.41,1449,682.69,1396.82,737.68ZM2387.05,396l-139.92,77.14q-39.49-41.06-78-57t-90.36-16q-94.3,0-152.59,56.1T1867.9,599.87q0,85.11,56.07,139t147.27,53.91q112.85,0,175.68-76.71l132.48,91Q2271.52,947.59,2075,947.54q-176.91,0-277.08-104.76t-100.1-245q0-97.32,48.75-179.26t135.89-128.72Q1969.71,243,2077.57,243q99.84,0,179.43,39.82A340.9,340.9,0,0,1,2387.05,396Zm147.82-383.2h168.81v246.8h99.73V404.07h-99.73V930.9H2534.87V404.07h-87V259.58h87ZM2924.45,0h168.78V930.9H2924.45ZM3171,259.58h172.67L3516.93,678.3l191.9-418.72h174l-460.63,1022h-174l177.92-402Z"/><path class="a" d="M4033.07,321.27A53,53,0,0,1,3980,374.14a52.94,52.94,0,1,1,53.06-52.87Zm-10.9.14a42.19,42.19,0,0,0-71.94-30,40.17,40.17,0,0,0-12.37,29.6,41.41,41.41,0,0,0,21,36.13,42.61,42.61,0,0,0,42.23,0A41,41,0,0,0,4016.56,342,40.31,40.31,0,0,0,4022.17,321.41ZM3958,292.3h25.79q8.11,0,12,1.8a14.22,14.22,0,0,1,6.14,5.69,17.77,17.77,0,0,1,2.33,9.35,17.2,17.2,0,0,1-1.42,7.58,16.43,16.43,0,0,1-5.37,5.8,10.5,10.5,0,0,1,4.36,4.06c.78,1.5,1.27,4.15,1.45,7.93.33,7.22.63,11.4.94,12.58a6.48,6.48,0,0,0,2.45,3.36H3992a19.57,19.57,0,0,1-1.24-3.95,41.68,41.68,0,0,1-.36-5.47q-.22-7.68-.82-9.48a4.89,4.89,0,0,0-2.2-2.71q-1.57-.9-6.29-.9h-10.39v22.5h-12.79V292.3Zm12.79,11.17v13.82h10.73c4.16,0,6.87-.57,8.22-1.67s2-2.89,2-5.35-.66-4.2-2-5.24-4.08-1.55-8.2-1.55h-10.81Z"/><polygon class="a" points="935.17 13.47 667.05 13.47 490.34 257.38 624.36 442.48 935.17 13.47"/><polygon class="b" points="619.04 449.83 619.12 449.71 485.27 264.38 485.25 264.4 304.34 13.47 41.03 13.47 353.3 446.54 0 934.14 268.14 934.14 487.01 632.03 487.03 632.05 619.06 449.86 619.04 449.83"/><polygon class="a" points="968.03 934.14 624.3 457.13 492.38 639.47 704.74 934.14 968.03 934.14"/></svg>